<?xml version="1.0" encoding="utf-8"?>
<!-- Generator: Adobe Illustrator 16.0.0, SVG Export Plug-In . SVG Version: 6.00 Build 0)  -->
<!DOCTYPE svg PUBLIC "-//W3C//DTD SVG 1.1//EN" "http://www.w3.org/Graphics/SVG/1.1/DTD/svg11.dtd">
<svg version="1.1" id="Layer_1" xmlns="http://www.w3.org/2000/svg" xmlns:xlink="http://www.w3.org/1999/xlink" x="0px" y="0px"
	 width="556.896px" height="254.781px" viewBox="0 0 556.896 254.781" enable-background="new 0 0 556.896 254.781"
	 xml:space="preserve">
<path fill="#EE2458" d="M20.296,16.5c-8.833,0-16.001,7.167-16.001,16c0,8.831,7.168,16,16.001,16c8.832,0,15.999-7.169,15.999-16
	C36.295,23.667,29.128,16.5,20.296,16.5z M20.296,21.3c2.656,0,4.8,2.144,4.8,4.8c0,2.656-2.144,4.8-4.8,4.8
	c-2.657,0-4.8-2.144-4.8-4.8C15.496,23.444,17.638,21.3,20.296,21.3z M20.296,44.021c-4,0-7.537-2.049-9.601-5.152
	c0.045-3.184,6.397-4.928,9.601-4.928c3.185,0,9.554,1.744,9.601,4.928C27.832,41.971,24.294,44.021,20.296,44.021z"/>
<g>
	<circle fill="#333333" cx="152.061" cy="114.658" r="22.5"/>
	<g>
		<rect x="140.361" y="107.739" fill="#FFFFFF" width="23.344" height="14.738"/>
		<g>
			
				<rect x="140.361" y="107.739" fill="none" stroke="#333333" stroke-width="2.4" stroke-linecap="round" stroke-linejoin="round" stroke-miterlimit="10" width="23.344" height="14.738"/>
			
				<line fill="none" stroke="#333333" stroke-width="2.4" stroke-linecap="round" stroke-linejoin="round" stroke-miterlimit="10" x1="163.76" y1="107.739" x2="152.061" y2="115.952"/>
			
				<line fill="none" stroke="#333333" stroke-width="2.4" stroke-linecap="round" stroke-linejoin="round" stroke-miterlimit="10" x1="140.361" y1="107.739" x2="152.061" y2="115.952"/>
			
				<line fill="none" stroke="#333333" stroke-width="2.4" stroke-linecap="round" stroke-linejoin="round" stroke-miterlimit="10" x1="148.798" y1="113.645" x2="140.361" y2="122.477"/>
			
				<line fill="none" stroke="#333333" stroke-width="2.4" stroke-linecap="round" stroke-linejoin="round" stroke-miterlimit="10" x1="155.323" y1="113.645" x2="163.76" y2="122.477"/>
		</g>
	</g>
</g>
<g>
	<circle fill="#3DB54A" cx="243.345" cy="113.195" r="22.5"/>
	<path fill="#FFFFFF" d="M243.57,101.833c-6.131,0-11.081,4.95-11.081,11.081c0,2.082,0.562,4.051,1.575,5.738l-1.969,5.906
		l6.131-1.969c1.574,0.9,3.432,1.406,5.344,1.406c6.131,0,11.081-4.95,11.081-11.082
		C254.651,106.784,249.701,101.833,243.57,101.833 M243.57,122.14c-1.856,0-3.6-0.562-5.062-1.519l-3.544,1.125l1.125-3.431
		c-1.125-1.518-1.743-3.375-1.743-5.4c0-5.118,4.162-9.225,9.225-9.225c5.119,0,9.226,4.163,9.226,9.225
		C252.796,117.978,248.689,122.14,243.57,122.14 M248.802,115.445c-0.281-0.168-1.632-0.9-1.912-1.012
		c-0.282-0.113-0.45-0.168-0.619,0.112c-0.226,0.281-0.788,0.9-0.957,1.069c-0.168,0.169-0.338,0.225-0.619,0.057
		c-0.281-0.169-1.182-0.507-2.25-1.463c-0.787-0.788-1.35-1.744-1.519-2.026c-0.169-0.28,0-0.449,0.17-0.562
		c0.112-0.112,0.28-0.337,0.449-0.506c0.169-0.168,0.226-0.281,0.281-0.449c0.112-0.169,0.056-0.337,0-0.506
		s-0.562-1.575-0.788-2.138c-0.225-0.562-0.45-0.506-0.619-0.506s-0.337-0.056-0.562-0.056c-0.169,0-0.506,0.056-0.787,0.338
		c-0.282,0.28-1.012,0.956-1.069,2.306c-0.057,1.406,0.9,2.755,1.069,2.982c0.113,0.168,1.856,3.206,4.669,4.443
		c2.813,1.237,2.869,0.844,3.375,0.844c0.506-0.056,1.688-0.619,1.969-1.294c0.281-0.675,0.281-1.237,0.226-1.349
		C249.251,115.671,249.026,115.558,248.802,115.445"/>
</g>
<circle fill="#2DA9E1" cx="334.111" cy="113.195" r="22.5"/>
<path fill="#FFFFFF" d="M343.989,105.945c-0.764,0.375-1.526,0.657-2.367,0.751c0.841-0.658,1.526-1.597,1.833-2.818
	c-0.764,0.563-1.68,1.033-2.596,1.221c-0.764-0.938-1.832-1.596-2.977-1.596c-2.291,0-4.123,2.253-4.123,5.07
	c0,0.376,0,0.751,0.077,1.127c-3.437-0.188-6.412-2.253-8.475-5.259c-0.382,0.751-0.534,1.597-0.534,2.536
	c0,1.784,0.688,3.287,1.832,4.226c-0.687,0-1.298-0.282-1.832-0.658c0,0,0,0,0,0.094c0,2.441,1.374,4.506,3.282,4.976
	c-0.382,0.094-0.687,0.188-1.067,0.188c-0.229,0-0.535,0-0.765-0.094c0.534,1.972,2.062,3.474,3.816,3.474
	c-1.374,1.315-3.13,2.16-5.114,2.16c-0.306,0-0.688,0-0.992-0.094c1.831,1.408,3.97,2.253,6.259,2.253
	c7.558,0,11.681-7.699,11.681-14.366c0-0.188,0-0.469,0-0.657C342.768,107.823,343.455,106.978,343.989,105.945z"/>
<g>
	<circle fill="#1572BA" cx="424.673" cy="113.195" r="22.5"/>
	<path fill="#FFFFFF" d="M422.025,124.089v-10.284h-2.749v-3.664h2.749v-3.157c0-2.443,1.629-4.785,5.293-4.785
		c1.527,0,2.647,0.101,2.647,0.101l-0.103,3.462c0,0-1.12,0-2.342,0c-1.323,0-1.526,0.611-1.526,1.629v2.646h3.971l-0.204,3.666
		h-3.869v10.283h-3.868L422.025,124.089L422.025,124.089z"/>
</g>
<g>
	<path id="Blue_6_" fill="#3F5C9A" d="M130.532,201.84c0.811,0,1.39-0.576,1.39-1.383v-22.119c0-0.807-0.579-1.383-1.39-1.383
		H108.31c-0.812,0-1.39,0.576-1.39,1.383v22.119c0,0.807,0.579,1.383,1.39,1.383H130.532L130.532,201.84z"/>
	<path id="f_6_" fill="#FFFFFF" d="M124.167,201.84v-9.678h3.24l0.463-3.803h-3.703v-2.303c0-1.037,0.348-1.846,1.853-1.846h1.968
		v-3.341c-0.348,0-1.505-0.115-2.895-0.115c-2.894,0-4.86,1.729-4.86,4.954v2.766h-3.125v3.803h3.241v9.678h3.819L124.167,201.84
		L124.167,201.84z"/>
</g>
<image overflow="visible" enable-background="new    " width="564" height="564" xlink:href="E66DFDFF7E0490E.png"  transform="matrix(0.0443 0 0 0.0443 63.0359 175.0537)">
</image>
<g>
	<g>
		<g>
			<g>
				<g>
					<defs>
						<rect id="SVGID_1_" x="16.795" y="175.055" width="27" height="25"/>
					</defs>
					<clipPath id="SVGID_2_">
						<use xlink:href="#SVGID_1_"  overflow="visible"/>
					</clipPath>
					<g clip-path="url(#SVGID_2_)">
						<g>
							<g>
								<g>
									<defs>
										<rect id="SVGID_3_" x="16.795" y="175.055" width="27" height="25"/>
									</defs>
									<clipPath id="SVGID_4_">
										<use xlink:href="#SVGID_3_"  overflow="visible"/>
									</clipPath>
									<path clip-path="url(#SVGID_4_)" fill="#2DA9E0" d="M25.654,199.322c-2.848,0-5.59-0.978-7.91-2.686
										c0.422,0,0.844,0.122,1.266,0.122c2.427,0,4.642-0.976,6.328-2.561c-2.215,0-4.112-1.707-4.746-4.146
										c0.316,0.122,0.634,0.122,0.949,0.122c0.422,0,0.949-0.122,1.371-0.242c-2.32-0.488-4.113-2.929-4.113-5.854l0,0
										c0.634,0.366,1.478,0.731,2.32,0.731c-1.371-1.1-2.32-2.929-2.32-5c0-1.1,0.211-2.072,0.738-2.929
										c2.531,3.536,6.328,5.978,10.547,6.222c-0.104-0.488-0.104-0.854-0.104-1.344c0-3.293,2.319-5.976,5.168-5.976
										c1.477,0,2.848,0.729,3.797,1.827c1.055-0.241,2.215-0.729,3.164-1.463c-0.422,1.344-1.16,2.562-2.215,3.293
										c1.055-0.121,2.004-0.486,2.953-0.977c-0.738,1.221-1.582,2.195-2.531,3.049c0,0.244,0,0.488,0,0.732
										C40.209,190.298,35.041,199.322,25.654,199.322"/>
								</g>
							</g>
						</g>
					</g>
				</g>
				<g>
					<g>
						<g>
							<g>
								<g>
									<defs>
										<rect id="SVGID_5_" x="156.379" y="179.396" width="25" height="20"/>
									</defs>
									<clipPath id="SVGID_6_">
										<use xlink:href="#SVGID_5_"  overflow="visible"/>
									</clipPath>
									<polyline clip-path="url(#SVGID_6_)" fill="#FFFFFF" points="166.201,193.104 172.986,189.145 166.201,185.083 
										166.201,193.104 									"/>
								</g>
							</g>
						</g>
						<g>
							<g>
								<g>
									<defs>
										<rect id="SVGID_7_" x="156.379" y="179.396" width="25" height="20"/>
									</defs>
									<clipPath id="SVGID_8_">
										<use xlink:href="#SVGID_7_"  overflow="visible"/>
									</clipPath>
									<polyline clip-path="url(#SVGID_8_)" fill="#E7E0E0" points="172.183,189.65 172.183,189.65 172.986,189.145 
										172.183,189.65 									"/>
								</g>
							</g>
						</g>
						<g>
							<g>
								<g>
									<defs>
										<rect id="SVGID_9_" x="156.379" y="179.396" width="25" height="20"/>
									</defs>
									<clipPath id="SVGID_10_">
										<use xlink:href="#SVGID_9_"  overflow="visible"/>
									</clipPath>
									<polyline clip-path="url(#SVGID_10_)" fill="#E7E0E0" points="172.183,189.65 166.201,185.083 172.986,189.145 
										172.183,189.65 									"/>
								</g>
							</g>
						</g>
						<g>
							<g>
								<g>
									<defs>
										<rect id="SVGID_11_" x="156.379" y="179.396" width="25" height="20"/>
									</defs>
									<clipPath id="SVGID_12_">
										<use xlink:href="#SVGID_11_"  overflow="visible"/>
									</clipPath>
									<g clip-path="url(#SVGID_12_)">
										<g>
											<g>
												<g>
													<defs>
														<path id="SVGID_13_" d="M181.022,183.764c0,0-0.269-1.93-0.982-2.844c-0.98-1.117-2.054-1.117-2.5-1.219
															c-3.48-0.305-8.75-0.305-8.75-0.305l0,0c0,0-5.268,0-8.75,0.305c-0.445,0.102-1.518,0.102-2.5,1.219
															c-0.714,0.812-0.98,2.844-0.98,2.844s-0.27,2.334-0.27,4.567v2.132c0,2.336,0.27,4.569,0.27,4.569
															s0.268,1.929,0.98,2.842c0.982,1.118,2.232,1.118,2.77,1.219c1.964,0.202,8.48,0.306,8.48,0.306s5.27,0,8.75-0.306
															c0.446-0.101,1.52-0.101,2.5-1.219c0.715-0.812,0.982-2.842,0.982-2.842s0.268-2.337,0.268-4.569v-2.132
															C181.29,185.995,181.022,183.764,181.022,183.764 M166.201,193.104v-8.021l6.785,3.958L166.201,193.104z"/>
													</defs>
													<clipPath id="SVGID_14_">
														<use xlink:href="#SVGID_13_"  overflow="visible"/>
													</clipPath>
													<g clip-path="url(#SVGID_14_)">
														<g>
															<g>
																<g>
																	<defs>
																		<rect id="SVGID_15_" x="156.379" y="179.396" width="24.91" height="20"/>
																	</defs>
																	<clipPath id="SVGID_16_">
																		<use xlink:href="#SVGID_15_"  overflow="visible"/>
																	</clipPath>
																	
																		<linearGradient id="SVGID_17_" gradientUnits="userSpaceOnUse" x1="-1386.426" y1="-561.8389" x2="-1386.4255" y2="-561.8389" gradientTransform="matrix(0 65910.3672 -65910.3672 0 -37030844 91380016)">
																		<stop  offset="0" style="stop-color:#E33329"/>
																		<stop  offset="0.583" style="stop-color:#CF2A29"/>
																		<stop  offset="1" style="stop-color:#BF2728"/>
																	</linearGradient>
																	<rect x="156.379" y="179.396" clip-path="url(#SVGID_16_)" fill="url(#SVGID_17_)" width="24.91" height="20"/>
																</g>
															</g>
														</g>
													</g>
												</g>
											</g>
										</g>
										<path fill="#C1C0C0" d="M151.856,0c-17.904,0-32.436,14.647-32.436,32.696c0,8.632,3.244,16.479,8.692,22.232
											c0.26-0.521,0.648-1.177,0.908-1.831c1.297-2.224,2.854-4.186,4.541-5.624c1.687-1.438,3.892-2.746,6.617-4.185
											c0.907-2.224,1.688-3.793,2.335-4.708c0.259-0.262,0.519-0.523,0.777-0.785c0.521-0.523,1.038-0.916,1.688-1.308
											c1.038-0.654,2.725-1.569,5.06-2.616c1.298-0.523,2.727-1.177,4.152-1.7c-1.558-0.131-3.114-0.261-4.671-0.261
											c-0.52,0-1.167,0-1.688,0c-0.259,0-0.519-0.131-0.647-0.262l-0.649-0.262c-0.129-0.262-0.26-0.521-0.129-0.785
											c0.259-0.654,0.648-1.569,1.167-2.484c0.129-0.393,0.389-0.654,0.52-0.916c0.259-0.523,0.648-1.177,1.297-1.962
											c1.038-1.569,2.596-3.009,4.412-4.315c1.815-1.309,4.021-2.746,6.615-4.055c2.596-1.308,5.839-2.615,9.73-3.924
											c0.389-0.131,0.777,0,1.037,0.393l0.131,0.393c0.13,0.131,0.13,0.393,0,0.523c-0.131,0.523-0.391,1.177-1.038,2.092
											c-0.521,0.916-0.909,1.57-1.298,1.962c-0.13,0.132-0.259,0.262-0.39,0.262l-2.983,0.915
											c-6.099,1.963-10.249,4.186-12.715,6.67c1.688,0,3.503,0.131,5.709,0.393c2.205,0.262,3.892,0.654,5.06,1.178
											c0.26,0.131,0.39,0.393,0.52,0.654v0.262c0,0.13,0,0.261-0.13,0.521c-0.646,1.309-1.558,2.486-2.465,3.271
											c-1.039,0.784-2.335,1.569-4.15,2.224c-3.633,1.308-6.1,2.354-7.915,3.139c0.908,0.393,2.205,1.177,2.205,2.484
											c0,0.785-0.26,1.832-0.907,3.27c-0.52,1.309-1.298,2.485-1.946,3.401c-0.777,1.046-1.815,1.7-2.983,1.83
											c-4.021,0.785-7.137,1.7-9.342,2.878c-2.075,1.046-3.633,2.354-4.411,3.661c-0.39,0.654-0.647,1.309-1.038,1.963
											c5.71,4.838,12.975,7.715,20.89,7.715c17.904,0,32.435-14.647,32.435-32.696C184.292,14.647,169.762,0,151.856,0z
											 M156.139,15.563c-0.131,0.131-0.261,0.131-0.52,0.131h-0.391c-0.259,0-0.39-0.131-0.52-0.262
											c-1.168-1.177-2.205-2.224-3.373-3.008c-0.26-0.132-0.26-0.393-0.26-0.654v-0.393c0-0.13,0-0.261,0.13-0.392
											c0.391-0.523,1.038-1.309,1.816-2.354c1.168-1.308,1.687-1.7,1.946-1.962c0.13-0.131,0.39-0.131,0.52-0.131h0.39
											c0.13,0,0.261,0,0.391,0.131c1.168,0.654,1.944,1.309,2.594,1.962c0.779,0.653,1.038,1.438,1.038,2.224
											C159.9,12.163,158.732,13.602,156.139,15.563z M156.139,55.321c-0.131,0.132-0.261,0.132-0.52,0.132h-0.391
											c-0.259,0-0.39-0.132-0.52-0.262c-1.168-1.178-2.205-2.224-3.373-3.008c-0.26-0.131-0.26-0.393-0.26-0.654v-0.394
											c0-0.131,0-0.262,0.13-0.522c0.391-0.523,1.038-1.308,1.816-2.354c1.168-1.308,1.687-1.701,1.946-1.962
											c0.13-0.131,0.259-0.131,0.39-0.131h0.39c0.129,0,0.259,0,0.39,0.131c1.168,0.654,1.945,1.308,2.594,1.962
											c0.779,0.653,1.039,1.438,1.039,2.223C159.9,51.922,158.732,53.36,156.139,55.321z"/>
										<path fill="#EE2458" d="M239.887,5c-15.182,0-27.501,12.317-27.501,27.5c0,15.179,12.32,27.5,27.501,27.5
											c15.18,0,27.499-12.321,27.499-27.5C267.386,17.317,255.068,5,239.887,5z M239.887,15c4.149,0,7.497,3.349,7.497,7.499
											s-3.348,7.5-7.497,7.5c-4.153,0-7.5-3.35-7.5-7.5S235.734,15,239.887,15z M239.887,50.501
											c-6.25,0-11.776-3.201-15.001-8.051c0.07-4.975,9.997-7.699,15.001-7.699c4.976,0,14.926,2.725,15,7.699
											C251.663,47.298,246.134,50.501,239.887,50.501z"/>
										<g>
											
												<rect x="468.688" y="177.376" fill="none" stroke="#616161" stroke-width="2.0007" stroke-linecap="round" stroke-linejoin="round" stroke-miterlimit="10" width="30" height="30"/>
											
												<line fill="none" stroke="#616161" stroke-width="4" stroke-linecap="round" stroke-linejoin="round" stroke-miterlimit="10" x1="473.583" y1="189.703" x2="493.796" y2="189.703"/>
											
												<line fill="none" stroke="#616161" stroke-width="4" stroke-linecap="round" stroke-linejoin="round" stroke-miterlimit="10" x1="473.583" y1="194.688" x2="493.796" y2="194.688"/>
											
												<line fill="none" stroke="#616161" stroke-width="4" stroke-linecap="round" stroke-linejoin="round" stroke-miterlimit="10" x1="483.734" y1="199.764" x2="493.796" y2="199.764"/>
										</g>
										<g>
											<g>
												<g>
													<ellipse fill="#020202" cx="318.957" cy="191.356" rx="5.071" ry="5.097"/>
												</g>
												<g>
													<ellipse fill="#020202" cx="329.68" cy="180.58" rx="4.204" ry="4.223"/>
												</g>
												<g>
													<ellipse fill="#020202" cx="329.68" cy="202.133" rx="4.204" ry="4.223"/>
												</g>
												<g>
													<path fill="#020202" d="M329.68,203.15c-0.289,0-0.434-0.146-0.724-0.289l-10.724-10.776
														c-0.438-0.437-0.438-1.021,0-1.312c0.434-0.438,1.014-0.438,1.303,0l10.727,10.775c0.436,0.438,0.436,1.021,0,1.312
														C330.261,203.007,329.972,203.15,329.68,203.15z"/>
												</g>
												<g>
													<path fill="#020202" d="M318.957,192.376c-0.292,0-0.436-0.146-0.724-0.291c-0.438-0.437-0.438-1.021,0-1.312
														l10.724-10.776c0.435-0.437,1.016-0.437,1.305,0c0.436,0.438,0.436,1.021,0,1.312l-10.581,10.776
														C319.535,192.23,319.247,192.376,318.957,192.376z"/>
												</g>
											</g>
										</g>
										
											<path fill="none" stroke="#616161" stroke-width="1.5563" stroke-linecap="round" stroke-linejoin="round" stroke-miterlimit="10" d="
											M242.095,189.396c0-6.877-6.716-12.5-15-12.5c-8.285,0-15,5.623-15,12.5c0,6.879,6.715,12.5,15,12.5
											c2.702,0,5.231-0.586,7.412-1.68l7.588,1.68l-1.92-6.375C241.31,193.676,242.095,191.578,242.095,189.396z"/>
										<path fill="#EE2458" d="M75.627,1.505c-14.392,0-26.092,11.638-26.092,25.954c0,6.835,2.693,13.022,6.964,17.641
											c0.279-0.462,0.464-0.924,0.743-1.386c1.022-1.754,2.229-3.232,3.622-4.434c1.3-1.107,3.063-2.216,5.292-3.324
											c0.65-1.848,1.3-3.048,1.858-3.786c0.186-0.277,0.371-0.462,0.557-0.646c0.371-0.371,0.835-0.74,1.3-1.109
											c0.836-0.554,2.136-1.2,3.993-2.032c1.021-0.462,2.135-0.923,3.343-1.292c-1.208-0.093-2.508-0.186-3.715-0.186
											c-0.464,0-0.929,0-1.393,0c-0.187,0-0.371-0.092-0.558-0.276l-0.186-0.185c-0.187-0.186-0.187-0.371-0.093-0.647
											c0.186-0.554,0.464-1.2,0.929-2.032c0.186-0.277,0.279-0.462,0.371-0.646c0.186-0.369,0.558-0.923,1.021-1.569
											c0.929-1.201,2.042-2.401,3.528-3.511c1.393-1.107,3.25-2.123,5.292-3.14c2.043-1.016,4.736-2.032,7.8-3.141
											c0.279-0.092,0.65,0,0.835,0.37l0.187,0.276c0.093,0.185,0.093,0.277,0.093,0.462c-0.093,0.369-0.371,0.923-0.835,1.662
											c-0.464,0.739-0.743,1.294-1.022,1.571c-0.092,0.092-0.186,0.185-0.372,0.276l-2.506,0.831
											c-4.829,1.57-8.265,3.325-10.215,5.357c1.3,0,2.879,0.093,4.55,0.369c1.857,0.277,3.158,0.554,4.085,0.923
											c0.187,0.094,0.372,0.278,0.372,0.556v0.276c0,0.093,0,0.277-0.093,0.369c-0.557,1.109-1.207,1.94-2.043,2.679
											c-0.743,0.646-1.949,1.293-3.343,1.756c-2.878,1.016-4.921,1.847-6.313,2.493c0.743,0.277,1.765,0.924,1.765,1.939
											c0,0.646-0.278,1.479-0.742,2.586c-0.464,1.109-1.021,1.939-1.579,2.679c-0.65,0.831-1.485,1.293-2.414,1.478
											c-3.25,0.646-5.757,1.387-7.521,2.217c-1.671,0.831-2.878,1.848-3.621,2.956c-0.278,0.462-0.558,1.016-0.835,1.57
											c4.55,3.786,10.399,6.096,16.807,6.096c14.393,0,26.091-11.638,26.091-25.954C101.718,13.143,90.112,1.505,75.627,1.505z
											 M79.062,13.788c-0.093,0.094-0.279,0.094-0.371,0.094h-0.279c-0.186,0-0.371-0.094-0.464-0.186
											c-0.929-0.924-1.857-1.755-2.692-2.401c-0.186-0.092-0.278-0.276-0.278-0.554v-0.276c0-0.093,0-0.278,0.093-0.371
											c0.278-0.461,0.742-1.016,1.485-1.847c1.021-1.108,1.393-1.386,1.577-1.569c0.094-0.093,0.187-0.093,0.372-0.093h0.278
											c0.093,0,0.279,0,0.372,0.093c0.928,0.554,1.578,1.107,2.042,1.569c0.557,0.555,0.835,1.201,0.835,1.847
											C82.127,11.203,81.198,12.311,79.062,13.788z M79.062,45.377c-0.093,0.093-0.279,0.093-0.371,0.093h-0.279
											c-0.186,0-0.371-0.093-0.464-0.185c-0.929-0.925-1.857-1.756-2.692-2.402c-0.186-0.092-0.278-0.276-0.278-0.554v-0.185
											c0-0.092,0-0.277,0.093-0.369c0.278-0.463,0.835-1.017,1.485-1.848c1.021-1.109,1.393-1.386,1.577-1.57
											c0.094-0.093,0.187-0.093,0.372-0.093h0.278c0.093,0,0.279,0,0.372,0.093c0.928,0.554,1.578,1.107,2.042,1.57
											c0.557,0.554,0.835,1.2,0.835,1.848C82.127,42.791,81.198,43.898,79.062,45.377z"/>
										<path fill="#EE2458" d="M26.352,103.574c-8.857,0-16.058,7.161-16.058,15.972c0,4.206,1.657,8.014,4.286,10.854
											c0.171-0.283,0.286-0.567,0.457-0.853c0.628-1.08,1.371-1.99,2.229-2.729c0.8-0.683,1.886-1.364,3.257-2.047
											c0.399-1.137,0.8-1.875,1.143-2.33c0.114-0.17,0.229-0.283,0.343-0.397c0.229-0.228,0.515-0.455,0.801-0.683
											c0.515-0.341,1.313-0.738,2.457-1.25c0.629-0.284,1.313-0.568,2.058-0.796c-0.744-0.057-1.543-0.113-2.286-0.113
											c-0.286,0-0.571,0-0.856,0c-0.114,0-0.229-0.058-0.343-0.171l-0.113-0.113c-0.114-0.113-0.114-0.229-0.059-0.398
											c0.114-0.341,0.286-0.738,0.572-1.25c0.114-0.171,0.171-0.285,0.229-0.398c0.113-0.227,0.343-0.568,0.629-0.966
											c0.57-0.739,1.257-1.479,2.171-2.16c0.856-0.682,2-1.307,3.257-1.933c1.257-0.625,2.914-1.25,4.8-1.932
											c0.172-0.058,0.4,0,0.514,0.227l0.114,0.171c0.059,0.113,0.059,0.17,0.059,0.284c-0.059,0.227-0.229,0.568-0.515,1.023
											c-0.286,0.454-0.458,0.795-0.629,0.966c-0.057,0.058-0.114,0.114-0.229,0.171l-1.542,0.512
											c-2.973,0.965-5.086,2.045-6.286,3.296c0.8,0,1.771,0.057,2.8,0.228c1.143,0.17,1.943,0.341,2.514,0.568
											c0.114,0.057,0.229,0.171,0.229,0.341v0.171c0,0.057,0,0.17-0.059,0.227c-0.342,0.684-0.742,1.194-1.257,1.648
											c-0.457,0.398-1.199,0.796-2.057,1.08c-1.771,0.625-3.028,1.137-3.885,1.535c0.457,0.17,1.085,0.568,1.085,1.193
											c0,0.398-0.171,0.909-0.457,1.592c-0.286,0.682-0.628,1.193-0.973,1.646c-0.399,0.513-0.914,0.796-1.485,0.91
											c-2,0.397-3.542,0.853-4.628,1.364c-1.029,0.512-1.771,1.137-2.229,1.818c-0.171,0.282-0.342,0.625-0.514,0.967
											c2.8,2.33,6.399,3.75,10.343,3.75c8.857,0,16.056-7.16,16.056-15.971C42.408,110.735,35.265,103.574,26.352,103.574z
											 M28.466,111.134c-0.058,0.057-0.172,0.057-0.229,0.057h-0.172c-0.114,0-0.229-0.057-0.286-0.114
											c-0.571-0.567-1.145-1.079-1.657-1.478c-0.114-0.057-0.171-0.17-0.171-0.34v-0.171c0-0.057,0-0.171,0.057-0.228
											c0.172-0.284,0.457-0.625,0.914-1.137c0.628-0.683,0.857-0.854,0.972-0.967c0.058-0.057,0.113-0.057,0.229-0.057h0.171
											c0.059,0,0.172,0,0.229,0.057c0.57,0.342,0.971,0.682,1.257,0.967c0.343,0.341,0.514,0.738,0.514,1.137
											C30.352,109.542,29.78,110.224,28.466,111.134z M28.466,130.572c-0.058,0.058-0.172,0.058-0.229,0.058h-0.172
											c-0.114,0-0.229-0.058-0.286-0.114c-0.571-0.567-1.145-1.08-1.657-1.478c-0.114-0.058-0.171-0.171-0.171-0.342v-0.113
											c0-0.058,0-0.17,0.057-0.228c0.172-0.284,0.515-0.625,0.914-1.138c0.628-0.684,0.857-0.854,0.972-0.967
											c0.058-0.057,0.113-0.057,0.229-0.057h0.171c0.059,0,0.172,0,0.229,0.057c0.57,0.341,0.971,0.682,1.257,0.967
											c0.343,0.34,0.514,0.738,0.514,1.138C30.352,128.98,29.78,129.663,28.466,130.572z"/>
										<g>
											<circle opacity="0.3" fill="#020202" enable-background="new    " cx="317.009" cy="32.5" r="20"/>
											
												<path fill="none" stroke="#FFFFFF" stroke-width="2.4254" stroke-linecap="round" stroke-linejoin="round" stroke-miterlimit="10" d="
												M317.009,16.751c-8.695,0-15.65,7.054-15.65,15.749s7.053,15.749,15.65,15.749c8.695,0,15.749-7.054,15.749-15.749
												S325.705,16.751,317.009,16.751z"/>
											<polygon fill="#FFFFFF" points="312.758,25.833 324.256,32.5 312.758,39.07 											"/>
										</g>
										<path fill="#EE2157" d="M420.819,201.921l1.965,1.955l6.587-6.555v-1.035l0.348-0.345
											c1.502,1.265,3.468,2.067,5.546,2.067c4.739,0,8.553-3.795,8.553-8.51c0.115-4.83-3.812-8.625-8.553-8.625
											c-4.737,0-8.551,3.795-8.551,8.51c0,2.07,0.809,4.025,2.08,5.521l-0.348,0.345h-1.04L420.819,201.921z M429.371,189.386
											c0-3.219,2.658-5.864,5.895-5.864s5.896,2.646,5.896,5.864c0,3.22-2.657,5.865-5.896,5.865
											C432.029,195.365,429.371,192.723,429.371,189.386z"/>
										<g>
											<polygon fill="#EE2458" points="366.611,198.311 373.95,189.609 366.611,183.807 											"/>
											<polygon fill="#EE2458" points="389.635,182.855 368.588,182.855 379.111,191.184 											"/>
											<path fill="#EE2458" d="M382.764,190.807l-3.13,2.476c-0.023,0.019-0.052,0.026-0.077,0.043
												c-0.026,0.018-0.052,0.028-0.078,0.044c-0.119,0.061-0.242,0.102-0.365,0.102c-0.001,0-0.001-0.003-0.001-0.003
												s0,0.003-0.001,0.003c-0.123,0-0.246-0.041-0.364-0.102c-0.027-0.016-0.053-0.026-0.078-0.044
												c-0.025-0.019-0.055-0.024-0.078-0.043l-3.128-2.476l-7.638,9.051h22.571L382.764,190.807z"/>
											<polygon fill="#EE2458" points="391.611,183.807 384.271,189.611 391.611,198.311 											"/>
										</g>
										<path fill="#1572BA" d="M271.69,203.855v-11.729h-4.345V187.9h4.345v-3.607c0-2.836,2.557-5.438,8.472-5.438
											c2.384,0,4.155,0.168,4.155,0.168l-0.139,3.94c0,0-1.806-0.01-3.775-0.01c-2.131,0-2.477,0.7-2.477,1.862v3.086h6.417
											l-0.272,4.224h-6.145v11.729H271.69z"/>
										<g>
											<circle opacity="0.3" fill="#020202" enable-background="new    " cx="387.941" cy="32.5" r="20"/>
											<g>
												<path fill="#FFFFFF" d="M399.458,37.19V22.983c0-1.312-1.034-2.344-2.345-2.344h-14.275
													c-1.312,0-2.346,1.032-2.346,2.344V37.19c0,1.309,1.034,2.345,2.346,2.345h14.208
													C398.355,39.603,399.458,38.499,399.458,37.19z M386.426,32.5l2.413,3.241l3.518-4.414l4.759,5.931H382.84L386.426,32.5
													z M375.734,25.397v16.55c0,1.312,1.035,2.346,2.345,2.346h16.553v-2.346H378.08v-16.55H375.734z"/>
											</g>
										</g>
										<path fill="#EE2458" d="M20.295,66c-5.52,0-10,4.479-10,10c0,5.52,4.48,10,10,10c5.521,0,10-4.48,10-10
											C30.295,70.479,25.815,66,20.295,66z M20.295,69c1.66,0,3,1.34,3,3s-1.339,3-3,3s-3-1.34-3-3S18.634,69,20.295,69z
											 M20.295,83.2c-2.5,0-4.71-1.28-6-3.22c0.028-1.99,3.999-3.08,6-3.08c1.99,0,5.972,1.09,6,3.08
											C25.006,81.919,22.794,83.2,20.295,83.2z"/>
									</g>
								</g>
							</g>
						</g>
					</g>
					<g>
						
							<line fill="none" stroke="#000000" stroke-width="3" stroke-linecap="round" stroke-linejoin="round" stroke-miterlimit="10" x1="65.528" y1="109.574" x2="85.528" y2="129.574"/>
						
							<line fill="none" stroke="#000000" stroke-width="3" stroke-linecap="round" stroke-linejoin="round" stroke-miterlimit="10" x1="65.528" y1="129.574" x2="85.528" y2="109.574"/>
					</g>
					<g>
						
							<path fill="none" stroke="#F41455" stroke-width="2.5966" stroke-linecap="round" stroke-linejoin="round" stroke-miterlimit="10" d="
							M30.295,225.941c-4.918,0-9.199,2.015-11.5,5c2.301,2.985,6.582,5,11.5,5s9.2-2.015,11.5-5
							C39.495,227.956,35.213,225.941,30.295,225.941z"/>
						<path fill="#F41455" d="M30.295,227.623c-2.437,0-4.413,1.486-4.413,3.318s1.978,3.32,4.413,3.32
							c2.437,0,4.413-1.488,4.413-3.32S32.731,227.623,30.295,227.623z M30.295,231.891c-0.695,0-1.259-0.426-1.259-0.947
							c0-0.524,0.563-0.948,1.259-0.948c0.696,0,1.262,0.424,1.262,0.948C31.556,231.465,30.991,231.891,30.295,231.891z"/>
					</g>
					<g>
						<g>
							<path fill="#FFFFFF" d="M83.08,219.166l-5.391,1.43c-0.681,0.18-0.828,0.729-0.332,1.227l1.009,1l-10.94,10.835
								c-0.529,0.526-0.529,1.38,0,1.907c0.262,0.261,0.611,0.393,0.958,0.393c0.352,0,0.697-0.132,0.967-0.393l10.94-10.838
								l1.013,1.002c0.499,0.492,1.057,0.346,1.237-0.326l1.443-5.34C84.167,219.391,83.762,218.984,83.08,219.166z"/>
						</g>
						<g>
							<path fill="#FFFFFF" d="M73.377,236.123c-0.58,0-1.051-0.465-1.051-1.037v-0.436c0-0.574,0.472-1.039,1.051-1.039
								c0.575,0,1.047,0.465,1.047,1.039v0.436C74.424,235.658,73.953,236.123,73.377,236.123z"/>
						</g>
						<g>
							<path fill="#FFFFFF" d="M76.842,236.123c-0.575,0-1.047-0.465-1.047-1.037v-3.98c0-0.569,0.472-1.035,1.047-1.035
								c0.582,0,1.051,0.466,1.051,1.035v3.98C77.892,235.658,77.424,236.123,76.842,236.123z"/>
						</g>
						<g>
							<path fill="#FFFFFF" d="M80.314,236.123c-0.579,0-1.051-0.465-1.051-1.037v-7.189c0-0.572,0.472-1.037,1.051-1.037
								s1.048,0.465,1.048,1.037v7.189C81.363,235.658,80.894,236.123,80.314,236.123z"/>
						</g>
					</g>
				</g>
			</g>
		</g>
	</g>
</g>
</svg>
